<svg width="48" height="48" viewBox="0 0 48 48" fill="none" xmlns="http://www.w3.org/2000/svg">
<path d="M38.375 21.8317L39.4734 22.1063C39.6182 22.1425 39.7711 22.1257 39.9045 22.059L42.4045 20.809C42.5447 20.7389 42.6535 20.6186 42.7092 20.4721C42.7649 20.3256 42.7635 20.1635 42.7053 20.0179L41.2121 16.2849L41.4969 13.4372C41.5086 13.3196 41.4868 13.2011 41.434 13.0955L40.184 10.5955C40.1388 10.5051 40.0724 10.427 39.9905 10.368C39.9085 10.3089 39.8134 10.2705 39.7134 10.2563L35.3384 9.63126C35.2834 9.62342 35.2276 9.62293 35.1725 9.62981L30.875 10.167V8.05426C30.875 7.3884 30.6381 6.74426 30.2066 6.23711C29.7751 5.72995 29.1773 5.39289 28.52 5.28622C27.8627 5.17955 27.1889 5.31025 26.6192 5.65492C26.0495 5.99958 25.621 6.53573 25.4104 7.16743L25.3287 7.41241L24.183 8.55803C24.0956 8.64545 24.0361 8.75682 24.012 8.87806C23.9879 8.99929 24.0003 9.12496 24.0476 9.23916C24.0949 9.35336 24.175 9.45097 24.2778 9.51965C24.3806 9.58832 24.5014 9.62499 24.625 9.625H25.875V10.875C25.8747 11.2739 25.9705 11.667 26.1543 12.021L23.0283 14.105C22.9378 14.1653 22.8646 14.2482 22.816 14.3455L20.316 19.3455C20.264 19.4494 20.2421 19.5658 20.2526 19.6816L20.861 26.3746L19.7381 26.9792L18.192 25.433C18.095 25.3361 17.9689 25.2737 17.833 25.2555C17.6971 25.2373 17.559 25.2643 17.4399 25.3323L16.3935 25.9303C14.114 27.2262 12.4357 29.3666 11.7209 31.8894L11.5658 32.4319C11.2039 32.4505 10.8462 32.5178 10.5022 32.632L9.51918 32.9597C9.17182 33.0766 8.80473 33.1234 8.43915 33.0974C8.07358 33.0715 7.71679 32.9732 7.38944 32.8084L6.15454 32.191C6.05925 32.1433 5.95336 32.1208 5.84693 32.1256C5.74049 32.1304 5.63705 32.1623 5.54641 32.2183C5.45578 32.2743 5.38097 32.3526 5.32909 32.4456C5.27722 32.5387 5.24999 32.6434 5.25 32.75V42.125C5.25001 42.2907 5.31586 42.4497 5.43307 42.5669C5.55028 42.6841 5.70924 42.75 5.875 42.75H28.375C28.5108 42.75 28.6429 42.7057 28.7514 42.624C28.8598 42.5422 28.9386 42.4273 28.976 42.2967L31.4492 33.6405L32.6306 31.8683L33.407 34.1977C33.4291 34.2638 33.4621 34.3258 33.5046 34.3811L39.7546 42.5061C39.813 42.582 39.888 42.6434 39.9739 42.6857C40.0598 42.728 40.1543 42.75 40.25 42.75H42.125C42.2277 42.75 42.3288 42.7247 42.4193 42.6763C42.5099 42.628 42.5872 42.5581 42.6443 42.4728C42.7014 42.3875 42.7367 42.2894 42.7469 42.1872C42.7571 42.0851 42.742 41.982 42.7029 41.887L38.375 31.3763V21.8317ZM41.3311 19.9482L39.5523 20.8376L37.2766 20.2687C37.1194 20.2294 36.953 20.2526 36.8127 20.3336L34.9126 21.4298L34.3231 20.5455L36.1713 19.5503C36.3115 19.4748 36.4176 19.3487 36.468 19.1977L37.0251 17.5261L37.4793 17.2233L37.7538 19.694C37.7708 19.8469 37.8436 19.9881 37.9582 20.0907C38.0728 20.1933 38.2212 20.25 38.375 20.25H40.25C40.405 20.25 40.5545 20.1924 40.6694 20.0884C40.7843 19.9844 40.8565 19.8414 40.8719 19.6872L40.9428 18.9775L41.3311 19.9482ZM22.8351 28.3976L22.1787 27.0848L33.2177 21.1407L33.8277 22.0557L22.8351 28.3976ZM25.1706 20.6759L26.8868 19.8179L28.3888 22.3212L24.3179 24.5132L25.1706 20.6759ZM26.9985 12.9605C27.3352 13.1832 27.7209 13.321 28.1224 13.3621C28.524 13.4031 28.9296 13.3462 29.3044 13.1962C29.6792 13.0462 30.012 12.8076 30.2744 12.5009C30.5368 12.1941 30.721 11.8283 30.811 11.4348L31.5 11.3486V14.2019L29.1505 15.1417L26.981 12.9721L26.9985 12.9605ZM28.558 16.317C28.6445 16.4035 28.7545 16.4627 28.8743 16.4872C28.9941 16.5118 29.1185 16.5007 29.2321 16.4553L32.3571 15.2053C32.4731 15.1589 32.5725 15.0788 32.6425 14.9754C32.7126 14.872 32.75 14.7499 32.75 14.625V11.1924L33.1641 11.1406L35.2896 14.8603L35.8495 17.0999L35.3605 18.5672L29.4906 21.7279L27.6731 18.6986L25.3526 14.0577L25.9203 13.6793L28.558 16.317ZM36.6217 15.0349L37.2142 14.8374L37.3239 15.8246L36.8912 16.113L36.6217 15.0349ZM40.2351 13.4928L39.6844 19H38.9344L38.3945 14.1407L39.5752 12.1729L40.2351 13.4928ZM35.2444 10.8806L38.6047 11.3606L37.333 13.4802L36.1634 13.87L34.5078 10.9727L35.2444 10.8806ZM26.317 8.19197C26.3855 8.12335 26.4372 8.03971 26.4679 7.94768L26.5963 7.56278C26.713 7.21265 26.9505 6.91548 27.2662 6.72444C27.582 6.5334 27.9554 6.46095 28.3197 6.52007C28.684 6.57919 29.0154 6.76601 29.2545 7.0471C29.4937 7.32819 29.625 7.68521 29.625 8.05426V8.375H26.1339L26.317 8.19197ZM29.625 9.625V10.875C29.625 11.2065 29.4933 11.5245 29.2589 11.7589C29.0245 11.9933 28.7065 12.125 28.375 12.125C28.0435 12.125 27.7255 11.9933 27.4911 11.7589C27.2567 11.5245 27.125 11.2065 27.125 10.875V9.625H29.625ZM23.8598 15.0529L24.3045 14.7565L26.2865 18.7205L24.6524 19.5375L22.3178 18.1368L23.8598 15.0529ZM21.5135 19.7455L21.7571 19.2582L23.9171 20.5542L22.8633 25.2964L22.0576 25.7303L21.5135 19.7455ZM12.9228 32.2328C13.5486 30.0241 15.018 28.1502 17.0136 27.0157L17.6456 26.6545L19.183 28.192C19.2781 28.287 19.4012 28.3489 19.5342 28.3684C19.6672 28.3879 19.803 28.364 19.9213 28.3003L21.0776 27.6777L21.7504 29.0234L20.5627 29.7086C20.445 29.7765 20.3527 29.8808 20.2996 30.0059C20.2466 30.1309 20.2357 30.2698 20.2687 30.4016L20.7721 32.4151L20.7274 32.4375C19.5071 33.0494 18.1609 33.368 16.7958 33.368C15.4308 33.368 14.0846 33.0493 12.8644 32.4373L12.9228 32.2328ZM6.5 41.5V33.7613L6.83035 33.9264C7.30441 34.1651 7.82109 34.3073 8.35049 34.3449C8.87989 34.3826 9.41149 34.3148 9.91454 34.1456L10.8975 33.818C11.2645 33.6961 11.6528 33.6516 12.0379 33.6874C12.4229 33.7232 12.7964 33.8384 13.1347 34.0259L16.6471 35.9772C17.0748 36.215 17.4326 36.5611 17.6845 36.9806L17.9225 37.3774C18.3307 38.0598 18.9317 38.6063 19.6497 38.9481C20.3677 39.2898 21.1708 39.4116 21.9579 39.2981C22.4789 39.2251 23.01 39.3004 23.4902 39.5151C23.9705 39.7298 24.3807 40.0754 24.6737 40.5123L25.3322 41.5H6.5ZM21.7811 38.0606C21.2376 38.139 20.683 38.0549 20.1872 37.8189C19.6913 37.5829 19.2763 37.2055 18.9944 36.7342L18.7564 36.3376C18.3916 35.73 17.8735 35.2289 17.2542 34.8845L16.7741 34.6179C16.7811 34.6179 16.7882 34.6182 16.7952 34.6182C18.3545 34.6178 19.8922 34.2539 21.2864 33.5555L21.7795 33.309C21.9067 33.2454 22.0084 33.1404 22.0678 33.0112C22.1272 32.882 22.1408 32.7364 22.1063 32.5984L21.5957 30.5558L28.4734 26.5879L26.5376 31.9114C26.5172 31.9676 26.505 32.0264 26.5012 32.086L25.9918 40.236L25.7138 39.8189C25.2892 39.1864 24.6953 38.6861 23.9999 38.3752C23.3045 38.0643 22.5356 37.9552 21.7811 38.0606ZM30.355 33.0283C30.3191 33.0821 30.2918 33.1411 30.274 33.2033L27.9036 41.5H27.1653L27.7431 32.2539L30.1567 25.6167L37.125 21.5966V25.5211L34.3034 27.214C34.2241 27.2617 34.1563 27.3263 34.105 27.4033L30.355 33.0283ZM41.1918 41.5H40.5578L34.5596 33.7024L33.509 30.5506L35.067 28.2136L37.125 26.9789V31.5C37.125 31.5816 37.141 31.6625 37.1721 31.738L41.1918 41.5Z" fill="#FDB900"/>
</svg>
