<svg width="48" height="48" viewBox="0 0 48 48" fill="none" xmlns="http://www.w3.org/2000/svg">
<path d="M29.8256 17.6662C29.849 17.6718 29.8593 17.693 29.8593 17.7223V18.1641C29.8593 19.254 30.7582 20.1719 31.8481 20.1719H41.4609C41.9898 20.1648 42.4947 19.9505 42.8673 19.575C43.2398 19.1996 43.4501 18.693 43.4531 18.1641V11.4524C43.4494 10.926 43.238 10.4223 42.865 10.0509C42.4919 9.67944 41.9873 9.47024 41.4609 9.46875H31.8483C31.3223 9.47037 30.8181 9.67968 30.4456 10.0511C30.0731 10.4226 29.8624 10.9261 29.8593 11.4522V13.4756C29.8593 14.6798 28.9473 14.8653 27.9244 14.9609C27.7646 14.9701 27.6058 14.993 27.4499 15.0291C27.3547 15.0515 27.2684 15.102 27.2022 15.1741C27.1361 15.2461 27.0931 15.3364 27.0789 15.4332C27.0644 15.5309 27.0808 15.6306 27.1257 15.7185C27.25 16.0337 27.8682 17.3178 29.8256 17.6662ZM29.6781 15.4854C30.414 15.0914 30.7968 14.3965 30.7968 13.4756V11.4522C30.7996 11.1747 30.9115 10.9095 31.1082 10.7137C31.305 10.518 31.5708 10.4076 31.8483 10.4062H41.4609C41.7388 10.4075 42.0051 10.5178 42.2023 10.7135C42.3996 10.9092 42.5121 11.1746 42.5156 11.4524V18.1641C42.5129 18.4444 42.4015 18.7128 42.2047 18.9125C42.0079 19.1122 41.7412 19.2276 41.4609 19.2344H31.8482C31.5682 19.2274 31.302 19.1118 31.1058 18.9121C30.9096 18.7123 30.7988 18.4441 30.7968 18.1641V17.7277C30.7997 17.4973 30.7221 17.2731 30.5772 17.0938C30.4324 16.9145 30.2295 16.7914 30.0036 16.7459C30.0008 16.7453 30.0009 16.7448 29.9981 16.7443C29.1031 16.5861 28.5872 16.1916 28.3044 15.865C28.7132 15.8184 29.2218 15.7296 29.6781 15.4854Z" fill="#FDB900"/>
<path d="M40.3146 13.4531H39.9932C39.8688 13.4531 39.7496 13.5025 39.6617 13.5904C39.5738 13.6783 39.5244 13.7976 39.5244 13.9219C39.5244 14.0462 39.5738 14.1654 39.6617 14.2533C39.7496 14.3412 39.8688 14.3906 39.9932 14.3906H40.3146C40.439 14.3906 40.5582 14.3412 40.6461 14.2533C40.734 14.1654 40.7834 14.0462 40.7834 13.9219C40.7834 13.7976 40.734 13.6783 40.6461 13.5904C40.5582 13.5025 40.439 13.4531 40.3146 13.4531Z" fill="#FDB900"/>
<path d="M38.6336 14.3906C38.7579 14.3906 38.8772 14.3412 38.9651 14.2533C39.053 14.1654 39.1024 14.0462 39.1024 13.9219C39.1024 13.7976 39.053 13.6783 38.9651 13.5904C38.8772 13.5025 38.7579 13.4531 38.6336 13.4531H37.3506C37.2263 13.4531 37.107 13.5025 37.0191 13.5904C36.9312 13.6783 36.8818 13.7976 36.8818 13.9219C36.8818 14.0462 36.9312 14.1654 37.0191 14.2533C37.107 14.3412 37.2263 14.3906 37.3506 14.3906H38.6336Z" fill="#FDB900"/>
<path d="M33.0732 14.3906H36.1033C36.2276 14.3906 36.3469 14.3412 36.4348 14.2533C36.5227 14.1654 36.5721 14.0462 36.5721 13.9219C36.5721 13.7976 36.5227 13.6783 36.4348 13.5904C36.3469 13.5025 36.2276 13.4531 36.1033 13.4531H33.0732C32.9489 13.4531 32.8297 13.5025 32.7418 13.5904C32.6539 13.6783 32.6045 13.7976 32.6045 13.9219C32.6045 14.0462 32.6539 14.1654 32.7418 14.2533C32.8297 14.3412 32.9489 14.3906 33.0732 14.3906Z" fill="#FDB900"/>
<path d="M38.7773 12.6719H40.3146C40.4389 12.6719 40.5582 12.6225 40.6461 12.5346C40.734 12.4467 40.7834 12.3274 40.7834 12.2031C40.7834 12.0788 40.734 11.9596 40.6461 11.8717C40.5582 11.7838 40.4389 11.7344 40.3146 11.7344H38.7773C38.653 11.7344 38.5338 11.7838 38.4459 11.8717C38.358 11.9596 38.3086 12.0788 38.3086 12.2031C38.3086 12.3274 38.358 12.4467 38.4459 12.5346C38.5338 12.6225 38.653 12.6719 38.7773 12.6719Z" fill="#FDB900"/>
<path d="M35.0718 12.6719H37.4183C37.5426 12.6719 37.6618 12.6225 37.7497 12.5346C37.8376 12.4467 37.887 12.3274 37.887 12.2031C37.887 12.0788 37.8376 11.9596 37.7497 11.8717C37.6618 11.7838 37.5426 11.7344 37.4183 11.7344H35.0718C34.9475 11.7344 34.8282 11.7838 34.7403 11.8717C34.6524 11.9596 34.603 12.0788 34.603 12.2031C34.603 12.3274 34.6524 12.4467 34.7403 12.5346C34.8282 12.6225 34.9475 12.6719 35.0718 12.6719Z" fill="#FDB900"/>
<path d="M33.0732 12.6719H33.8241C33.9484 12.6719 34.0676 12.6225 34.1556 12.5346C34.2435 12.4467 34.2929 12.3274 34.2929 12.2031C34.2929 12.0788 34.2435 11.9596 34.1556 11.8717C34.0676 11.7838 33.9484 11.7344 33.8241 11.7344H33.0732C32.9489 11.7344 32.8297 11.7838 32.7418 11.8717C32.6539 11.9596 32.6045 12.0788 32.6045 12.2031C32.6045 12.3274 32.6539 12.4467 32.7418 12.5346C32.8297 12.6225 32.9489 12.6719 33.0732 12.6719Z" fill="#FDB900"/>
<path d="M40.3146 15.1719H38.7773C38.653 15.1719 38.5338 15.2213 38.4459 15.3092C38.358 15.3971 38.3086 15.5163 38.3086 15.6406C38.3086 15.7649 38.358 15.8842 38.4459 15.9721C38.5338 16.06 38.653 16.1094 38.7773 16.1094H40.3146C40.4389 16.1094 40.5582 16.06 40.6461 15.9721C40.734 15.8842 40.7834 15.7649 40.7834 15.6406C40.7834 15.5163 40.734 15.3971 40.6461 15.3092C40.5582 15.2213 40.4389 15.1719 40.3146 15.1719Z" fill="#FDB900"/>
<path d="M34.603 15.6406C34.603 15.7649 34.6524 15.8842 34.7403 15.9721C34.8282 16.06 34.9475 16.1094 35.0718 16.1094H37.4183C37.5426 16.1094 37.6618 16.06 37.7497 15.9721C37.8376 15.8842 37.887 15.7649 37.887 15.6406C37.887 15.5163 37.8376 15.3971 37.7497 15.3092C37.6618 15.2213 37.5426 15.1719 37.4183 15.1719H35.0718C34.9475 15.1719 34.8282 15.2213 34.7403 15.3092C34.6524 15.3971 34.603 15.5163 34.603 15.6406Z" fill="#FDB900"/>
<path d="M33.0732 16.1094H33.8241C33.9484 16.1094 34.0676 16.06 34.1556 15.9721C34.2435 15.8842 34.2929 15.7649 34.2929 15.6406C34.2929 15.5163 34.2435 15.3971 34.1556 15.3092C34.0676 15.2213 33.9484 15.1719 33.8241 15.1719H33.0732C32.9489 15.1719 32.8297 15.2213 32.7418 15.3092C32.6539 15.3971 32.6045 15.5163 32.6045 15.6406C32.6045 15.7649 32.6539 15.8842 32.7418 15.9721C32.8297 16.06 32.9489 16.1094 33.0732 16.1094Z" fill="#FDB900"/>
<path d="M40.3146 16.8906H39.9932C39.8688 16.8906 39.7496 16.94 39.6617 17.0279C39.5738 17.1158 39.5244 17.2351 39.5244 17.3594C39.5244 17.4837 39.5738 17.6029 39.6617 17.6908C39.7496 17.7787 39.8688 17.8281 39.9932 17.8281H40.3146C40.439 17.8281 40.5582 17.7787 40.6461 17.6908C40.734 17.6029 40.7834 17.4837 40.7834 17.3594C40.7834 17.2351 40.734 17.1158 40.6461 17.0279C40.5582 16.94 40.439 16.8906 40.3146 16.8906Z" fill="#FDB900"/>
<path d="M38.6336 16.8906H37.3506C37.2263 16.8906 37.107 16.94 37.0191 17.0279C36.9312 17.1158 36.8818 17.2351 36.8818 17.3594C36.8818 17.4837 36.9312 17.6029 37.0191 17.6908C37.107 17.7787 37.2263 17.8281 37.3506 17.8281H38.6336C38.7579 17.8281 38.8772 17.7787 38.9651 17.6908C39.053 17.6029 39.1024 17.4837 39.1024 17.3594C39.1024 17.2351 39.053 17.1158 38.9651 17.0279C38.8772 16.94 38.7579 16.8906 38.6336 16.8906Z" fill="#FDB900"/>
<path d="M33.0732 17.8281H36.1033C36.2276 17.8281 36.3469 17.7787 36.4348 17.6908C36.5227 17.6029 36.5721 17.4837 36.5721 17.3594C36.5721 17.2351 36.5227 17.1158 36.4348 17.0279C36.3469 16.94 36.2276 16.8906 36.1033 16.8906H33.0732C32.9489 16.8906 32.8297 16.94 32.7418 17.0279C32.6539 17.1158 32.6045 17.2351 32.6045 17.3594C32.6045 17.4837 32.6539 17.6029 32.7418 17.6908C32.8297 17.7787 32.9489 17.8281 33.0732 17.8281Z" fill="#FDB900"/>
<path d="M6.53906 38.5312H16.1518C16.6778 38.5297 17.1819 38.3204 17.5544 37.949C17.9268 37.5775 18.1375 37.074 18.1406 36.548V36.1011C18.1393 36.09 18.1419 36.0788 18.1481 36.0694C18.1544 36.0601 18.1637 36.0533 18.1745 36.0503C20.1317 35.7019 20.7493 34.4175 20.8737 34.1025C20.9189 34.0147 20.9355 33.915 20.9211 33.8173C20.9062 33.7203 20.8627 33.63 20.7961 33.558C20.7295 33.4859 20.6429 33.4354 20.5474 33.413C20.3925 33.3769 20.2347 33.3542 20.0759 33.3449C19.053 33.2494 18.1406 33.0638 18.1406 31.8594V29.8359C18.1406 28.7459 17.2416 27.8281 16.1516 27.8281H6.53906C6.0101 27.8352 5.50503 28.0495 5.13248 28.4251C4.75993 28.8007 4.54965 29.3075 4.54688 29.8365V36.5482C4.55078 37.0745 4.76222 37.578 5.13524 37.9493C5.50826 38.3206 6.01274 38.5298 6.53906 38.5312ZM5.48438 29.8364C5.48693 29.556 5.59837 29.2875 5.79516 29.0877C5.99196 28.8879 6.2587 28.7724 6.53906 28.7656H16.1516C16.4315 28.7725 16.6978 28.8881 16.8941 29.0878C17.0903 29.2876 17.2012 29.5559 17.2031 29.8359V31.8594C17.2031 32.7802 17.5859 33.4752 18.3219 33.8691C18.778 34.1133 19.2849 34.202 19.6936 34.2487C19.4104 34.5759 18.8947 34.9699 18.0004 35.128C17.9976 35.1284 18 35.129 17.9973 35.1295C17.772 35.1746 17.5694 35.2968 17.4245 35.4751C17.2796 35.6534 17.2013 35.8766 17.2031 36.1064V36.548C17.2003 36.8254 17.0885 37.0907 16.8918 37.2863C16.695 37.482 16.4292 37.5925 16.1517 37.5938H6.53906C6.26126 37.5925 5.99506 37.4823 5.79778 37.2867C5.60051 37.0911 5.48796 36.8258 5.48438 36.548V29.8364Z" fill="#FDB900"/>
<path d="M7.68555 32.8281H8.00703C8.13135 32.8281 8.25058 32.7787 8.33849 32.6908C8.4264 32.6029 8.47578 32.4837 8.47578 32.3594C8.47578 32.2351 8.4264 32.1158 8.33849 32.0279C8.25058 31.94 8.13135 31.8906 8.00703 31.8906H7.68555C7.56123 31.8906 7.442 31.94 7.35409 32.0279C7.26618 32.1158 7.2168 32.2351 7.2168 32.3594C7.2168 32.4837 7.26618 32.6029 7.35409 32.6908C7.442 32.7787 7.56123 32.8281 7.68555 32.8281Z" fill="#FDB900"/>
<path d="M11.118 32.3594C11.118 32.2351 11.0686 32.1158 10.9807 32.0279C10.8928 31.94 10.7736 31.8906 10.6493 31.8906H9.36621C9.24189 31.8906 9.12266 31.94 9.03475 32.0279C8.94685 32.1158 8.89746 32.2351 8.89746 32.3594C8.89746 32.4837 8.94685 32.6029 9.03475 32.6908C9.12266 32.7787 9.24189 32.8281 9.36621 32.8281H10.6493C10.7736 32.8281 10.8928 32.7787 10.9807 32.6908C11.0686 32.6029 11.118 32.4837 11.118 32.3594Z" fill="#FDB900"/>
<path d="M14.9271 31.8906H11.897C11.7727 31.8906 11.6534 31.94 11.5655 32.0279C11.4776 32.1158 11.4282 32.2351 11.4282 32.3594C11.4282 32.4837 11.4776 32.6029 11.5655 32.6908C11.6534 32.7787 11.7727 32.8281 11.897 32.8281H14.9271C15.0514 32.8281 15.1706 32.7787 15.2585 32.6908C15.3464 32.6029 15.3958 32.4837 15.3958 32.3594C15.3958 32.2351 15.3464 32.1158 15.2585 32.0279C15.1706 31.94 15.0514 31.8906 14.9271 31.8906Z" fill="#FDB900"/>
<path d="M7.68555 31.1094H9.22281C9.34713 31.1094 9.46636 31.06 9.55426 30.9721C9.64217 30.8842 9.69156 30.7649 9.69156 30.6406C9.69156 30.5163 9.64217 30.3971 9.55426 30.3092C9.46636 30.2213 9.34713 30.1719 9.22281 30.1719H7.68555C7.56123 30.1719 7.442 30.2213 7.35409 30.3092C7.26618 30.3971 7.2168 30.5163 7.2168 30.6406C7.2168 30.7649 7.26618 30.8842 7.35409 30.9721C7.442 31.06 7.56123 31.1094 7.68555 31.1094Z" fill="#FDB900"/>
<path d="M10.582 31.1094H12.9285C13.0528 31.1094 13.1721 31.06 13.26 30.9721C13.3479 30.8842 13.3973 30.7649 13.3973 30.6406C13.3973 30.5163 13.3479 30.3971 13.26 30.3092C13.1721 30.2213 13.0528 30.1719 12.9285 30.1719H10.582C10.4577 30.1719 10.3385 30.2213 10.2506 30.3092C10.1627 30.3971 10.1133 30.5163 10.1133 30.6406C10.1133 30.7649 10.1627 30.8842 10.2506 30.9721C10.3385 31.06 10.4577 31.1094 10.582 31.1094Z" fill="#FDB900"/>
<path d="M14.1763 31.1094H14.9271C15.0514 31.1094 15.1707 31.06 15.2586 30.9721C15.3465 30.8842 15.3959 30.7649 15.3959 30.6406C15.3959 30.5163 15.3465 30.3971 15.2586 30.3092C15.1707 30.2213 15.0514 30.1719 14.9271 30.1719H14.1763C14.0519 30.1719 13.9327 30.2213 13.8448 30.3092C13.7569 30.3971 13.7075 30.5163 13.7075 30.6406C13.7075 30.7649 13.7569 30.8842 13.8448 30.9721C13.9327 31.06 14.0519 31.1094 14.1763 31.1094Z" fill="#FDB900"/>
<path d="M7.68555 34.5469H9.22281C9.28437 34.5469 9.34532 34.5348 9.40219 34.5112C9.45906 34.4876 9.51074 34.4531 9.55426 34.4096C9.59779 34.3661 9.63232 34.3144 9.65588 34.2575C9.67943 34.2006 9.69156 34.1397 9.69156 34.0781C9.69156 34.0166 9.67943 33.9556 9.65588 33.8987C9.63232 33.8419 9.59779 33.7902 9.55426 33.7467C9.51074 33.7031 9.45906 33.6686 9.40219 33.6451C9.34532 33.6215 9.28437 33.6094 9.22281 33.6094H7.68555C7.62399 33.6094 7.56303 33.6215 7.50616 33.6451C7.44929 33.6686 7.39762 33.7031 7.35409 33.7467C7.31056 33.7902 7.27604 33.8419 7.25248 33.8987C7.22892 33.9556 7.2168 34.0166 7.2168 34.0781C7.2168 34.1397 7.22892 34.2006 7.25248 34.2575C7.27604 34.3144 7.31056 34.3661 7.35409 34.4096C7.39762 34.4531 7.44929 34.4876 7.50616 34.5112C7.56303 34.5348 7.62399 34.5469 7.68555 34.5469Z" fill="#FDB900"/>
<path d="M10.582 34.5469H12.9285C13.0528 34.5469 13.1721 34.4975 13.26 34.4096C13.3479 34.3217 13.3973 34.2024 13.3973 34.0781C13.3973 33.9538 13.3479 33.8346 13.26 33.7467C13.1721 33.6588 13.0528 33.6094 12.9285 33.6094H10.582C10.4577 33.6094 10.3385 33.6588 10.2506 33.7467C10.1627 33.8346 10.1133 33.9538 10.1133 34.0781C10.1133 34.2024 10.1627 34.3217 10.2506 34.4096C10.3385 34.4975 10.4577 34.5469 10.582 34.5469Z" fill="#FDB900"/>
<path d="M14.9271 33.6094H14.1763C14.1147 33.6094 14.0538 33.6215 13.9969 33.6451C13.94 33.6686 13.8883 33.7031 13.8448 33.7467C13.8013 33.7902 13.7668 33.8419 13.7432 33.8987C13.7196 33.9556 13.7075 34.0166 13.7075 34.0781C13.7075 34.1397 13.7196 34.2006 13.7432 34.2575C13.7668 34.3144 13.8013 34.3661 13.8448 34.4096C13.8883 34.4531 13.94 34.4876 13.9969 34.5112C14.0538 34.5348 14.1147 34.5469 14.1763 34.5469H14.9271C15.0514 34.5469 15.1707 34.4975 15.2586 34.4096C15.3465 34.3217 15.3959 34.2024 15.3959 34.0781C15.3959 33.9538 15.3465 33.8346 15.2586 33.7467C15.1707 33.6588 15.0514 33.6094 14.9271 33.6094Z" fill="#FDB900"/>
<path d="M7.68555 36.2656H8.00703C8.13135 36.2656 8.25058 36.2162 8.33849 36.1283C8.4264 36.0404 8.47578 35.9212 8.47578 35.7969C8.47578 35.6726 8.4264 35.5533 8.33849 35.4654C8.25058 35.3775 8.13135 35.3281 8.00703 35.3281H7.68555C7.56123 35.3281 7.442 35.3775 7.35409 35.4654C7.26618 35.5533 7.2168 35.6726 7.2168 35.7969C7.2168 35.9212 7.26618 36.0404 7.35409 36.1283C7.442 36.2162 7.56123 36.2656 7.68555 36.2656Z" fill="#FDB900"/>
<path d="M10.6493 35.3281H9.36621C9.24189 35.3281 9.12266 35.3775 9.03475 35.4654C8.94685 35.5533 8.89746 35.6726 8.89746 35.7969C8.89746 35.9212 8.94685 36.0404 9.03475 36.1283C9.12266 36.2162 9.24189 36.2656 9.36621 36.2656H10.6493C10.7736 36.2656 10.8928 36.2162 10.9807 36.1283C11.0686 36.0404 11.118 35.9212 11.118 35.7969C11.118 35.6726 11.0686 35.5533 10.9807 35.4654C10.8928 35.3775 10.7736 35.3281 10.6493 35.3281Z" fill="#FDB900"/>
<path d="M14.9271 35.3281H11.897C11.7727 35.3281 11.6534 35.3775 11.5655 35.4654C11.4776 35.5533 11.4282 35.6726 11.4282 35.7969C11.4282 35.9212 11.4776 36.0404 11.5655 36.1283C11.6534 36.2162 11.7727 36.2656 11.897 36.2656H14.9271C15.0514 36.2656 15.1706 36.2162 15.2585 36.1283C15.3464 36.0404 15.3958 35.9212 15.3958 35.7969C15.3958 35.6726 15.3464 35.5533 15.2585 35.4654C15.1706 35.3775 15.0514 35.3281 14.9271 35.3281Z" fill="#FDB900"/>
<path d="M33.0203 43.6094C38.7645 43.6094 43.4377 38.9362 43.4377 33.192C43.4377 27.4479 38.7645 22.7747 33.0203 22.7747C27.2761 22.7747 22.603 27.4479 22.603 33.192C22.603 38.9362 27.2762 43.6094 33.0203 43.6094ZM31.4061 42.5362C30.8817 42.4409 30.3648 42.3085 29.8592 42.1399V39.5876C29.8592 39.4632 29.8098 39.344 29.7219 39.2561C29.634 39.1682 29.5148 39.1188 29.3904 39.1188C29.2661 39.1188 29.1469 39.1682 29.059 39.2561C28.9711 39.344 28.9217 39.4632 28.9217 39.5876V41.7533C28.619 41.6163 28.3311 41.4487 28.0623 41.2533V37.7306C28.0569 37.5255 28.0896 37.3212 28.1588 37.128C28.1666 37.109 28.168 37.0903 28.1758 37.0726C28.2696 36.8673 28.4045 36.6834 28.5723 36.5325C28.7401 36.3816 28.9372 36.2668 29.1512 36.1953L29.4687 36.0851C29.7791 35.9778 30.0938 35.8851 30.4127 35.8068L30.6669 37.7422C30.6764 37.8149 30.7028 37.8842 30.744 37.9448C30.7851 38.0053 30.8399 38.0554 30.9039 38.091C30.968 38.1266 31.0394 38.1466 31.1126 38.1496C31.1858 38.1526 31.2586 38.1384 31.3253 38.1081L31.8626 37.8643L31.9619 38.2722L31.4061 42.5362ZM31.1652 30.6891C31.2201 30.6488 31.2658 30.5973 31.2991 30.5379C31.3324 30.4785 31.3526 30.4127 31.3584 30.3448L31.432 29.4283C31.8968 29.4595 32.3628 29.3896 32.798 29.2234C33.2332 29.0572 33.6272 28.7987 33.9529 28.4657C34.3915 28.8621 34.7008 29.3812 34.8407 29.9555L34.9817 30.5336C34.9981 30.601 35.0293 30.6639 35.0729 30.7177C35.1166 30.7716 35.1716 30.8151 35.2341 30.8451C35.2966 30.8751 35.3649 30.8909 35.4343 30.8914C35.5036 30.8918 35.5721 30.8768 35.635 30.8476L36.0631 30.6483C36.0565 30.7054 36.0317 30.7588 35.9922 30.8007C35.9528 30.8426 35.901 30.8706 35.8444 30.8807C35.7354 30.9008 35.6369 30.9585 35.5661 31.0437C35.4952 31.1289 35.4565 31.2362 35.4566 31.347C35.4524 31.9905 35.1937 32.6063 34.737 33.0596C34.2803 33.513 33.6626 33.7672 33.0191 33.7666C32.3755 33.766 31.7584 33.5107 31.3025 33.0565C30.8466 32.6024 30.5889 31.9862 30.5859 31.3426C30.5859 31.2322 30.5469 31.1253 30.4759 31.0408C30.4048 30.9563 30.3061 30.8996 30.1973 30.8808C30.1352 30.8701 30.0788 30.8379 30.0381 30.7898C29.9974 30.7417 29.975 30.6808 29.9748 30.6178C29.9748 30.6154 29.9756 30.613 29.9757 30.6106C29.9983 30.6202 30.0217 30.6281 30.0455 30.634C30.8319 30.8178 30.9784 30.8251 31.1651 30.6891H31.1652ZM31.1126 27.0574C31.3571 26.796 31.6527 26.5876 31.9811 26.4452C32.3095 26.3027 32.6636 26.2292 33.0215 26.2292C33.3795 26.2292 33.7336 26.3027 34.062 26.4452C34.3904 26.5876 34.686 26.796 34.9305 27.0574C35.1733 27.315 35.3599 27.6204 35.4785 27.954C35.597 28.2876 35.6449 28.6422 35.619 28.9953L35.6012 29.2531C35.3148 28.5111 34.8076 27.8749 34.148 27.4304C34.0469 27.3621 33.9231 27.3359 33.8029 27.3575C33.6828 27.3791 33.5758 27.4466 33.5047 27.5458C33.2692 27.8739 32.9509 28.1337 32.5822 28.2987C32.2135 28.4637 31.8077 28.5281 31.4061 28.4851L31.1736 28.4603C31.1693 28.4597 31.1648 28.4593 31.1604 28.459C31.005 28.4465 30.851 28.4962 30.7321 28.597C30.6132 28.6979 30.5392 28.8419 30.5262 28.9972L30.4715 29.6793L30.4242 28.9953C30.3983 28.6422 30.4461 28.2876 30.5646 27.954C30.6831 27.6204 30.8696 27.3151 31.1124 27.0574H31.1126ZM31.5142 36.9926L31.3423 35.6848C31.4278 35.8845 31.5525 36.0649 31.7091 36.2154L32.1965 36.683L31.5142 36.9926ZM33.0203 42.6719C32.7955 42.6719 32.5727 42.6634 32.3519 42.648L32.8504 38.7172L33.2489 38.7236L33.6379 42.6512C33.4338 42.6644 33.2279 42.6719 33.0203 42.6719ZM32.7312 37.4697L33.0203 37.3387L33.4097 37.5156L33.3283 37.7875L32.8068 37.7792L32.7312 37.4697ZM33.0268 36.1747L32.3494 35.5387C32.2812 35.4756 32.2262 35.3995 32.1876 35.3149C32.149 35.2304 32.1277 35.139 32.1248 35.0461V34.5906C32.7139 34.7445 33.3326 34.7445 33.9217 34.5906V35.0453C33.9192 35.1384 33.898 35.23 33.8596 35.3148C33.8211 35.3996 33.7661 35.4758 33.6978 35.539L33.0268 36.1747ZM34.3331 36.2162C34.4878 36.0678 34.6115 35.8901 34.697 35.6934L34.5264 36.9926L33.8449 36.6834L34.3331 36.2162ZM37.9842 41.253C37.7148 41.4446 37.4269 41.6089 37.1248 41.7433V39.5876C37.1248 39.4632 37.0754 39.344 36.9875 39.2561C36.8996 39.1682 36.7804 39.1188 36.6561 39.1188C36.5318 39.1188 36.4125 39.1682 36.3246 39.2561C36.2367 39.344 36.1873 39.4632 36.1873 39.5876V42.1328C35.6625 42.3133 35.124 42.4512 34.577 42.545L34.154 38.3106L34.2733 37.9062L34.7163 38.1077C34.783 38.1379 34.8557 38.1521 34.9288 38.1491C35.0019 38.146 35.0733 38.1259 35.1373 38.0904C35.2012 38.0548 35.2559 38.0048 35.297 37.9442C35.3381 37.8837 35.3645 37.8144 35.374 37.7419L35.6281 35.8064C35.9474 35.8851 36.2625 35.9779 36.5734 36.0847L36.8924 36.1949C37.1068 36.2663 37.3043 36.381 37.4726 36.5318C37.6408 36.6826 37.7763 36.8664 37.8707 37.0718C37.8785 37.0904 37.8771 37.1091 37.8829 37.1237C37.9546 37.3193 37.9889 37.5266 37.9842 37.7348V41.253ZM33.0266 23.7122C38.2538 23.7122 42.4937 27.9648 42.4937 33.192C42.4957 34.6148 42.1753 36.0196 41.5567 37.3008C40.938 38.5821 40.0372 39.7065 38.9217 40.5898V37.739C38.9266 37.4119 38.8702 37.0867 38.7554 36.7804C38.7439 36.7515 38.7367 36.7228 38.7242 36.6937C38.5781 36.3705 38.3671 36.0807 38.1044 35.8425C37.8416 35.6042 37.5326 35.4226 37.1966 35.3088L36.8912 35.1987C36.2307 34.9683 35.5505 34.7987 34.8592 34.6919V34.1774C35.2891 33.9054 35.6508 33.5382 35.9163 33.1042C36.1818 32.6702 36.344 32.181 36.3904 31.6744C36.623 31.5471 36.8065 31.3459 36.9119 31.1026C37.0173 30.8593 37.0385 30.5878 36.9722 30.3311C36.9075 30.0687 36.7418 29.8425 36.5112 29.7016L36.5549 29.0602C36.5901 28.5787 36.5249 28.0952 36.3633 27.6403C36.2016 27.1854 35.9472 26.7691 35.6162 26.4178C35.2839 26.0624 34.8821 25.7791 34.4358 25.5853C33.9895 25.3916 33.5081 25.2917 33.0216 25.2917C32.535 25.2917 32.0537 25.3916 31.6074 25.5853C31.1611 25.7791 30.7593 26.0624 30.427 26.4178C30.096 26.7691 29.8417 27.1855 29.6801 27.6403C29.5185 28.0952 29.4533 28.5787 29.4886 29.0601L29.5329 29.7004C29.302 29.8414 29.1362 30.0681 29.072 30.331C29.0093 30.5877 29.0322 30.8578 29.1371 31.1004C29.2419 31.3429 29.4231 31.5446 29.6531 31.6747C29.6999 32.1818 29.8627 32.6712 30.1287 33.1054C30.3947 33.5395 30.7569 33.9068 31.1873 34.1787V34.6914C30.4941 34.7983 29.8121 34.9681 29.1497 35.1987L28.8362 35.3089C28.5002 35.4228 28.1912 35.6046 27.9284 35.843C27.6656 36.0814 27.4547 36.3712 27.3087 36.6946C27.2963 36.723 27.2983 36.7515 27.2853 36.7847C27.1731 37.0886 27.1187 37.4109 27.1248 37.7348V40.5898C26.0094 39.7065 25.1086 38.5821 24.49 37.3008C23.8713 36.0195 23.551 34.6148 23.5531 33.192C23.5531 27.9648 27.7994 23.7122 33.0266 23.7122Z" fill="#FDB900"/>
<path d="M9.88355 9.26039C9.99455 9.26049 10.102 9.22105 10.1865 9.14914C10.2563 9.09 10.3277 9.03196 10.3988 8.97571C10.4479 8.93794 10.4891 8.89079 10.5199 8.837C10.5507 8.78321 10.5706 8.72384 10.5783 8.66233C10.586 8.60082 10.5814 8.5384 10.5649 8.47866C10.5483 8.41893 10.52 8.36308 10.4817 8.31434C10.4434 8.2656 10.3958 8.22494 10.3417 8.19472C10.2876 8.1645 10.228 8.14532 10.1664 8.13828C10.1048 8.13125 10.0424 8.1365 9.98289 8.15373C9.92334 8.17096 9.8678 8.19983 9.81949 8.23867C9.73918 8.30172 9.65871 8.3675 9.58012 8.43399C9.50689 8.49609 9.45451 8.57917 9.43003 8.67201C9.40556 8.76485 9.41019 8.86296 9.44329 8.95308C9.47638 9.04321 9.53636 9.12099 9.6151 9.17593C9.69384 9.23086 9.78754 9.26029 9.88355 9.26024V9.26039Z" fill="#FDB900"/>
<path d="M8.83185 9.84888C8.73069 9.77664 8.60498 9.74754 8.48237 9.76798C8.35976 9.78842 8.25028 9.85672 8.17803 9.95786C7.58391 10.7877 7.14814 11.7202 6.89264 12.7083C6.71555 13.3941 6.62612 14.0996 6.62647 14.8079C6.62647 14.9323 6.67585 15.0515 6.76376 15.1394C6.85167 15.2273 6.9709 15.2767 7.09522 15.2767C7.21954 15.2767 7.33876 15.2273 7.42667 15.1394C7.51458 15.0515 7.56396 14.9323 7.56396 14.8079C7.56364 14.1789 7.64302 13.5524 7.80021 12.9433C8.02697 12.0665 8.41366 11.2392 8.94084 10.5028C8.97662 10.4527 9.00218 10.396 9.01607 10.3361C9.02996 10.2761 9.0319 10.214 9.02178 10.1533C9.01166 10.0925 8.98968 10.0344 8.95709 9.98218C8.9245 9.92995 8.88195 9.88466 8.83185 9.84888Z" fill="#FDB900"/>
<path d="M14.9795 25.2253C20.7237 25.2253 25.3969 20.5521 25.3969 14.808C25.3969 9.06383 20.7237 4.39062 14.9795 4.39062C9.23539 4.39062 4.5625 9.06383 4.5625 14.808C4.5625 20.5521 9.23531 25.2253 14.9795 25.2253ZM13.277 24.1344C12.5851 24.0084 11.9096 23.8051 11.263 23.5285C11.1756 22.9011 11.261 22.2616 11.5099 21.6791C11.5576 21.5649 11.5583 21.4364 11.5116 21.3217C11.465 21.2071 11.3749 21.1155 11.261 21.067C11.1471 21.0185 11.0187 21.0171 10.9037 21.063C10.7887 21.1088 10.6966 21.1983 10.6473 21.3119C10.4151 21.8603 10.2962 22.4501 10.2979 23.0457C9.95572 22.8502 9.62657 22.6328 9.3125 22.3948V19.9645C9.30924 19.7251 9.35054 19.4871 9.4343 19.2627C9.44297 19.2409 9.44938 19.2191 9.45883 19.1979C9.56822 18.9588 9.72559 18.7447 9.92118 18.569C10.1168 18.3932 10.3464 18.2595 10.5958 18.1762L10.9547 18.052C11.3274 17.9233 11.7059 17.8129 12.0902 17.7209L12.3854 19.969C12.3949 20.0416 12.4214 20.1109 12.4625 20.1715C12.5037 20.232 12.5585 20.2821 12.6225 20.3177C12.6865 20.3532 12.758 20.3733 12.8311 20.3763C12.9043 20.3792 12.9771 20.365 13.0438 20.3348L13.7152 20.0301L13.845 20.5629L13.277 24.1344ZM13.2326 19.2197L13.0114 17.5357C13.0405 17.5309 13.0698 17.5262 13.099 17.5216C13.1906 17.7835 13.3426 18.0203 13.5425 18.2127L14.1555 18.8009L13.2326 19.2197ZM12.4343 12.237C12.7445 11.264 13.3171 10.7508 13.8223 10.4827C14.3398 10.9358 15.0871 11.189 16.2676 11.2908C16.4629 11.7272 16.9288 12.4616 17.9045 12.5752C17.9281 12.5832 17.9522 12.5894 17.9767 12.5938H17.9979C18.0301 12.5891 18.0618 12.5812 18.0924 12.5703C18.1153 12.5638 18.1397 12.5665 18.1606 12.5777C18.1815 12.5889 18.1973 12.6078 18.2045 12.6305C18.213 12.6642 18.2146 12.6994 18.2093 12.7338C18.2039 12.7682 18.1916 12.8012 18.1732 12.8307C18.1372 12.8951 18.0777 12.943 18.0072 12.9646C17.9856 12.9738 17.9631 12.9804 17.94 12.9843H17.8898C17.7699 12.9812 17.6536 13.0253 17.5659 13.1071C17.4782 13.1889 17.4262 13.302 17.4211 13.4218C17.3956 14.0518 17.1275 14.6476 16.6728 15.0845C16.2182 15.5214 15.6122 15.7657 14.9817 15.7661C14.3511 15.7665 13.7448 15.5232 13.2896 15.0869C12.8343 14.6506 12.5654 14.0552 12.539 13.4252C12.534 13.3052 12.4823 13.1918 12.3948 13.1094C12.3073 13.027 12.1911 12.9822 12.0709 12.9844H12.0156C11.9429 12.9782 11.875 12.9452 11.8252 12.8918C11.7755 12.8384 11.7474 12.7683 11.7464 12.6953C11.7463 12.6712 11.749 12.6471 11.7542 12.6236C11.7735 12.5455 11.8731 12.5734 11.8741 12.5736C11.9024 12.5828 11.9314 12.5894 11.9609 12.5934H11.9843C12.0493 12.5912 12.1132 12.5759 12.1721 12.5482C12.231 12.5206 12.2837 12.4813 12.327 12.4327C12.3773 12.3766 12.4141 12.3096 12.4343 12.237ZM12.3994 10.4128C12.4704 9.9431 12.6678 9.50155 12.9705 9.13547C13.0456 9.34005 13.1348 9.53913 13.2376 9.73125C12.9252 9.91458 12.6426 10.1444 12.3994 10.4128ZM16.0753 8.43281C16.4977 8.66102 16.8097 8.90664 17.0305 9.1843C17.4336 9.68894 17.6316 10.327 17.5852 10.9712L17.5517 11.4542C17.3142 11.2719 17.1411 11.0186 17.0577 10.7311C17.0336 10.6342 16.9793 10.5475 16.9026 10.4837C16.8259 10.4198 16.7308 10.3821 16.6312 10.376C14.5287 10.2477 14.1165 9.70711 13.7501 8.53039C14.2363 8.30383 15.2176 7.96875 16.0753 8.43281ZM13.9357 7.45312C13.9719 7.41131 14.0111 7.37215 14.0529 7.33594C14.1765 7.21558 14.3228 7.1211 14.4834 7.05805C14.6439 6.995 14.8154 6.96464 14.9879 6.96875C15.1757 6.96537 15.3619 7.00266 15.534 7.07805C15.706 7.15345 15.8596 7.26517 15.9844 7.40555C15.2366 7.18148 14.4986 7.27555 13.9357 7.45312ZM14.9795 24.2876C14.7194 24.2876 14.4618 24.2766 14.2069 24.2559L14.7225 21.0153L15.3016 21.0245L15.6988 24.2605C15.4613 24.2785 15.2215 24.2876 14.9795 24.2878V24.2876ZM14.5841 19.6357L14.9795 19.456L15.4908 19.688L15.3709 20.0877L14.6916 20.077L14.5841 19.6357ZM14.9809 18.2923L14.1849 17.5357C14.1034 17.4586 14.0381 17.3659 13.9929 17.2632C13.9477 17.1605 13.9236 17.0497 13.9219 16.9375V16.5298C14.2215 16.6256 14.5325 16.681 14.8468 16.6947C14.8902 16.6963 14.9389 16.6971 14.982 16.6971C15.3384 16.6989 15.6927 16.6431 16.0312 16.5319V16.9362C16.0306 17.0484 16.0073 17.1593 15.9629 17.2624C15.9184 17.3654 15.8537 17.4585 15.7725 17.5359L14.9809 18.2923ZM16.4184 18.2132C16.6189 18.0208 16.7713 17.784 16.8634 17.5219C16.8914 17.5262 16.9195 17.5309 16.9475 17.5355L16.7266 19.2197L15.8047 18.8013L16.4184 18.2132ZM20.6406 22.3948C20.3338 22.6257 20.0137 22.8386 19.682 23.0323C19.6815 22.4411 19.5623 21.856 19.3315 21.3118C19.3081 21.2543 19.2736 21.202 19.2298 21.158C19.186 21.1139 19.1338 21.0791 19.0764 21.0555C19.019 21.0318 18.9575 21.0198 18.8954 21.0202C18.8333 21.0207 18.7719 21.0334 18.7148 21.0578C18.6577 21.0822 18.6061 21.1177 18.5629 21.1623C18.5197 21.2069 18.4858 21.2597 18.4632 21.3175C18.4406 21.3753 18.4297 21.4371 18.4313 21.4991C18.4328 21.5612 18.4467 21.6223 18.4721 21.679C18.7196 22.258 18.8057 22.8932 18.7211 23.5172C18.0503 23.8067 17.3481 24.017 16.6286 24.1438L16.1945 20.6058L16.3523 20.0794L16.9148 20.3347C16.9815 20.365 17.0544 20.3792 17.1276 20.3762C17.2007 20.3733 17.2722 20.3532 17.3362 20.3176C17.4002 20.2821 17.455 20.232 17.4962 20.1714C17.5374 20.1109 17.5638 20.0415 17.5734 19.9689L17.8686 17.7208C18.2524 17.8133 18.632 17.9232 19.0047 18.0519L19.3641 18.1762C19.6136 18.2594 19.8434 18.393 20.0392 18.5687C20.235 18.7444 20.3926 18.9585 20.5023 19.1976C20.5117 19.219 20.5124 19.2406 20.5195 19.2581C20.6039 19.4854 20.645 19.7264 20.6406 19.9688V22.3948ZM14.9822 5.32812C20.2094 5.32812 24.4524 9.58078 24.4524 14.808C24.4583 16.0744 24.2066 17.3288 23.7124 18.4948C23.2183 19.6609 22.4922 20.7143 21.5781 21.5909V19.973C21.5828 19.6117 21.5198 19.2528 21.3923 18.9148C21.3795 18.8827 21.3704 18.8509 21.3564 18.8192C21.195 18.4623 20.9619 18.1423 20.6716 17.8793C20.3813 17.6163 20.04 17.4157 19.6689 17.2902L19.3123 17.1659C18.5498 16.9045 17.7655 16.7114 16.9688 16.5889V16.0526C17.0469 15.9733 17.1809 15.8878 17.2812 15.7948C17.8408 15.2783 18.208 14.5867 18.3223 13.8338C18.6112 13.7383 18.8534 13.537 19.0003 13.2705C19.1472 13.0039 19.1879 12.6917 19.1143 12.3963C19.0735 12.2345 18.994 12.0851 18.8828 11.9607C18.7715 11.8364 18.6317 11.7408 18.4755 11.6823L18.5202 11.0366C18.5834 10.1583 18.3135 9.28848 17.7641 8.60039C17.609 8.41385 17.4335 8.24541 17.2406 8.09828C17.1955 7.53301 16.9382 7.00574 16.5204 6.62233C16.1026 6.23892 15.5553 6.02776 14.9882 6.03125C14.4257 6.02285 13.8809 6.22773 13.4634 6.60469C13.0458 6.98164 12.7864 7.50272 12.7374 8.06312C12.2994 8.42 11.9531 8.87651 11.7276 9.39452C11.502 9.91253 11.4037 10.477 11.4408 11.0408L11.4859 11.6897C11.3287 11.7465 11.1879 11.8412 11.0759 11.9653C10.9639 12.0894 10.8842 12.2391 10.8438 12.4013C10.7941 12.6035 10.7977 12.8152 10.8541 13.0156C10.9106 13.216 11.018 13.3984 11.1659 13.5449C11.2966 13.6774 11.4568 13.777 11.6334 13.8356C11.7759 14.7219 12.2611 15.5166 12.9844 16.0483V16.5884C12.1877 16.7111 11.4035 16.9043 10.6411 17.1659L10.2847 17.2902C9.91356 17.4158 9.57221 17.6164 9.28182 17.8794C8.99144 18.1425 8.75822 18.4624 8.59664 18.8194C8.58281 18.8506 8.5757 18.8826 8.56117 18.919C8.43445 19.2543 8.37131 19.6103 8.375 19.9688V21.5909C7.46159 20.714 6.73612 19.6605 6.24274 18.4944C5.74936 17.3284 5.49838 16.0741 5.50508 14.808C5.50731 12.2949 6.50642 9.88539 8.28316 8.10814C10.0599 6.33089 12.4691 5.33108 14.9822 5.32812Z" fill="#FDB900"/>
</svg>
