<svg width="90" height="90" viewBox="0 0 90 90" fill="none" xmlns="http://www.w3.org/2000/svg">
<path d="M85.5 40.5H85.44C84.8711 23.8703 74.1422 9.29925 58.431 3.819C58.0957 1.62862 56.2159 0.0084375 54 0H36C33.7841 0.0084375 31.9042 1.62862 31.569 3.819C15.8578 9.29925 5.12887 23.8703 4.56 40.5H4.5C2.01469 40.5 0 42.5147 0 45V48C0 50.4853 2.01469 52.5 4.5 52.5H85.5C87.9853 52.5 90 50.4853 90 48V45C90 42.5147 87.9853 40.5 85.5 40.5ZM31.5 7.0365V33C31.5 33.8284 32.1716 34.5 33 34.5C33.8284 34.5 34.5 33.8284 34.5 33V4.5C34.5 3.67162 35.1716 3 36 3H43.5V36C43.5 36.8284 44.1716 37.5 45 37.5C45.8284 37.5 46.5 36.8284 46.5 36V3H54C54.8284 3 55.5 3.67162 55.5 4.5V33C55.5 33.8284 56.1716 34.5 57 34.5C57.8284 34.5 58.5 33.8284 58.5 33V7.0365C72.4635 12.3874 81.8848 25.5566 82.44 40.5H7.56C8.11519 25.5566 17.5365 12.3874 31.5 7.0365ZM87 48C87 48.8284 86.3284 49.5 85.5 49.5H4.5C3.67162 49.5 3 48.8284 3 48V45C3 44.1716 3.67162 43.5 4.5 43.5H85.5C86.3284 43.5 87 44.1716 87 45V48Z" fill="#FDB900"/>
<path d="M37.5 66H18C15.5147 66 13.5 68.0147 13.5 70.5V76.5C13.5 77.3284 14.1716 78 15 78C15.8284 78 16.5 77.3284 16.5 76.5V70.5C16.5 69.6716 17.1716 69 18 69H37.5C38.3284 69 39 68.3284 39 67.5C39 66.6716 38.3284 66 37.5 66Z" fill="#FDB900"/>
<path d="M88.5 66H82.35C81.6324 62.5104 78.5627 60.0045 75 60H15C10.86 60.0049 7.50488 63.36 7.5 67.5H1.5C0.671625 67.5 0 68.1716 0 69V81C0 81.8284 0.671625 82.5 1.5 82.5H7.95C9.27919 86.9428 13.3626 89.9901 18 90H27C33.864 89.9805 40.2178 86.3728 43.752 80.4885C44.1825 79.7992 45.0904 79.5896 45.7796 80.0201C45.9694 80.1386 46.1295 80.2987 46.248 80.4885C49.7822 86.3728 56.136 89.9805 63 90H72C77.2149 89.9938 81.6351 86.1613 82.38 81H88.5C89.3284 81 90 80.3284 90 79.5V67.5C90 66.6716 89.3284 66 88.5 66ZM7.5 79.5H3V75H7.5V79.5ZM7.5 72H3V70.5H7.5V72ZM79.5 79.5C79.4951 83.64 76.14 86.9951 72 87H63C57.1907 86.9829 51.8132 83.9295 48.822 78.9495C47.5446 76.8369 44.7964 76.1601 42.684 77.4375C42.0651 77.8118 41.5462 78.3306 41.172 78.9495C38.1819 83.9276 32.8071 86.9809 27 87H18C13.86 86.9951 10.5049 83.64 10.5 79.5V67.5C10.5 65.0147 12.5147 63 15 63H75C77.4853 63 79.5 65.0147 79.5 67.5V79.5ZM87 78H82.5V73.5H87V78ZM87 70.5H82.5V69H87V70.5Z" fill="#FDB900"/>
<path d="M46.5 66H43.5C42.6716 66 42 66.6716 42 67.5C42 68.3284 42.6716 69 43.5 69H46.5C47.3284 69 48 68.3284 48 67.5C48 66.6716 47.3284 66 46.5 66Z" fill="#FDB900"/>
</svg>
