<svg width="48" height="48" viewBox="0 0 48 48" fill="none" xmlns="http://www.w3.org/2000/svg">
<g clip-path="url(#clip0)">
<path d="M42.6569 30.5839L32.4168 17.163C32.2204 16.9057 31.8528 16.8561 31.5952 17.0526C31.3379 17.2489 31.2884 17.6167 31.4848 17.8741L41.0064 30.3534H39.3353L29.3037 17.2056C29.1073 16.9483 28.7397 16.8987 28.4821 17.0952C28.2247 17.2915 28.1753 17.6593 28.3717 17.9167L38.4591 31.1376V33.4195C38.4591 33.7432 38.7214 34.0056 39.0452 34.0056C39.369 34.0056 39.6313 33.7432 39.6313 33.4195V31.5256H42.1908C42.4137 31.5256 42.6173 31.3992 42.7161 31.1994C42.8151 30.9996 42.792 30.7611 42.6569 30.5839Z" fill="#FDB900"/>
<path d="M39.8531 40.3089H39.6314V35.9172C39.6314 35.5935 39.369 35.3311 39.0453 35.3311C38.7215 35.3311 38.4591 35.5935 38.4591 35.9172V37.4771H27.7289V36.2783C27.7289 34.2006 26.0386 32.5103 23.9609 32.5103C21.8833 32.5103 20.193 34.2006 20.193 36.2783V37.4772H16.1158C15.7921 37.4772 15.5297 37.7396 15.5297 38.0633C15.5297 38.387 15.7921 38.6494 16.1158 38.6494H20.193V40.309H9.54097V38.6494H13.6181C13.9419 38.6494 14.2042 38.387 14.2042 38.0633C14.2042 37.7396 13.9419 37.4772 13.6181 37.4772H9.54097V31.1375L19.6284 17.9166C19.8248 17.6593 19.7753 17.2914 19.518 17.0951C19.2604 16.8986 18.8928 16.9482 18.6964 17.2055L8.66484 30.3532H6.99369L16.5278 17.8575C16.7242 17.6002 16.6748 17.2323 16.4174 17.036C16.1598 16.8395 15.7922 16.8891 15.5958 17.1465L5.34326 30.5839C5.20814 30.761 5.18508 30.9995 5.28394 31.1993C5.3828 31.399 5.58638 31.5255 5.80926 31.5255H8.36873V40.3089H8.14702C7.43508 40.3089 6.85584 40.8882 6.85584 41.6001V43.4139C6.85584 43.7376 7.11819 44 7.44196 44H40.5582C40.882 44 41.1444 43.7376 41.1444 43.4139V41.6001C41.1443 40.8882 40.565 40.3089 39.8531 40.3089ZM38.4591 38.6493V40.3089H27.7289V38.6493H38.4591ZM21.3652 36.2782C21.3652 34.8469 22.5296 33.6825 23.9609 33.6825C25.3923 33.6825 26.5567 34.8469 26.5567 36.2782V40.3089H21.3652V36.2782ZM39.972 42.8278H8.028V41.6001C8.028 41.5345 8.08138 41.4812 8.14694 41.4812H39.853C39.9187 41.4812 39.972 41.5345 39.972 41.6001V42.8278H39.972Z" fill="#FDB900"/>
<path d="M30.7668 25.5659C29.6961 25.5659 28.8249 26.437 28.8249 27.5079V30.9016C28.5662 30.9625 28.3735 31.1942 28.3735 31.4715C28.3735 31.7952 28.6359 32.0576 28.9597 32.0576H32.6439C32.9676 32.0576 33.23 31.7952 33.23 31.4715C33.23 31.1698 33.002 30.9215 32.7088 30.8891V27.5079C32.7088 26.437 31.8376 25.5659 30.7668 25.5659ZM30.7668 26.7382C31.1912 26.7382 31.5366 27.0834 31.5366 27.5079V30.8854H29.9972V27.5079C29.9971 27.0834 30.3424 26.7382 30.7668 26.7382Z" fill="#FDB900"/>
<path d="M17.1551 25.5659C16.0844 25.5659 15.2132 26.437 15.2132 27.5079V30.8891C14.92 30.9214 14.6919 31.1697 14.6919 31.4715C14.6919 31.7952 14.9542 32.0576 15.278 32.0576H18.9623C19.2861 32.0576 19.5484 31.7952 19.5484 31.4715C19.5484 31.1942 19.3557 30.9625 19.0971 30.9016V27.5079C19.0971 26.437 18.2259 25.5659 17.1551 25.5659ZM17.1552 26.7382C17.5796 26.7382 17.9249 27.0834 17.9249 27.5079V30.8854H16.3855V27.5079C16.3855 27.0834 16.7308 26.7382 17.1552 26.7382Z" fill="#FDB900"/>
<path d="M21.9432 20.1011C21.3014 20.1011 20.7793 20.6232 20.7793 21.2649V25.5042C20.7793 26.1459 21.3014 26.668 21.9432 26.668H25.9786C26.6204 26.668 27.1425 26.1459 27.1425 25.5042V21.2649C27.1425 20.6232 26.6204 20.1011 25.9786 20.1011H21.9432ZM25.9702 22.7984H24.5824V21.2733H25.9702V22.7984ZM23.4101 21.2733V22.7984H21.9515V21.2733H23.4101ZM21.9515 23.9706H23.4101V25.4957H21.9515V23.9706ZM24.5824 25.4957V23.9706H25.9702V25.4957H24.5824Z" fill="#FDB900"/>
<path d="M16.8271 15.8027H21.6223L23.5805 17.7766C23.6905 17.8876 23.8403 17.95 23.9966 17.95C24.1528 17.95 24.3026 17.8876 24.4126 17.7766L26.3709 15.8027H31.3113C33.0829 15.8027 34.5242 14.3614 34.5242 12.5897V7.21295C34.5242 5.44131 33.0829 4 31.3113 4H16.8271C15.0556 4 13.6143 5.44131 13.6143 7.21295V8.4213C13.6143 8.745 13.8766 9.00742 14.2004 9.00742C14.5242 9.00742 14.7865 8.745 14.7865 8.4213V7.21295C14.7865 6.08776 15.7019 5.17224 16.8271 5.17224H31.3113C32.4365 5.17224 33.352 6.08768 33.352 7.21295V12.5897C33.352 13.7149 32.4365 14.6304 31.3113 14.6304H26.1268C25.9705 14.6304 25.8207 14.6928 25.7107 14.8038L23.9966 16.5316L22.2825 14.8038C22.1725 14.6929 22.0227 14.6305 21.8664 14.6305H16.8271C15.7019 14.6305 14.7865 13.7151 14.7865 12.5898V10.9192C14.7865 10.5955 14.5242 10.3331 14.2004 10.3331C13.8766 10.3331 13.6143 10.5955 13.6143 10.9192V12.5897C13.6143 14.3614 15.0556 15.8027 16.8271 15.8027Z" fill="#FDB900"/>
<path d="M21.5739 11.8352C21.2501 11.8352 20.9878 12.0976 20.9878 12.4213C20.9878 12.745 21.2501 13.0074 21.5739 13.0074H23.3748V13.5176C23.3748 13.8413 23.6371 14.1037 23.9609 14.1037C24.2847 14.1037 24.547 13.8413 24.547 13.5176V13.0074H25.8828C26.4625 13.0074 26.934 12.5359 26.934 11.9562V10.5357C26.934 9.95607 26.4625 9.48452 25.8828 9.48452H22.16V8.39347H26.3479C26.6717 8.39347 26.934 8.13105 26.934 7.80735C26.934 7.48366 26.6717 7.22123 26.3479 7.22123H24.5749V6.74725C24.5749 6.42356 24.3125 6.16113 23.9887 6.16113C23.665 6.16113 23.4026 6.42356 23.4026 6.74725V7.22123H22.0391C21.4594 7.22123 20.9879 7.69278 20.9879 8.27242V9.60565C20.9879 10.1853 21.4594 10.6568 22.0391 10.6568H25.7619V11.8352H21.5739V11.8352Z" fill="#FDB900"/>
</g>
<defs>
<clipPath id="clip0">
<rect width="40" height="40" fill="white" transform="translate(4 4)"/>
</clipPath>
</defs>
</svg>
