<svg width="238" height="207" viewBox="0 0 238 207" fill="none" xmlns="http://www.w3.org/2000/svg">
<path d="M16.66 207L0 178.53C18.6433 168.249 33.32 155.398 44.03 139.977C54.74 124.16 60.69 105.774 61.88 84.8166C57.12 87.1891 51.9633 88.3754 46.41 88.3754C33.7167 88.3754 23.4033 84.6189 15.47 77.106C7.93333 69.1977 4.165 58.9169 4.165 46.2636C4.165 32.4241 8.33 21.3525 16.66 13.0487C24.99 4.34958 35.5017 0 48.195 0C64.0617 0 76.9533 6.32666 86.87 18.98C96.7867 31.6332 101.745 49.2292 101.745 71.7679C101.745 101.424 94.2083 127.917 79.135 151.246C64.0617 174.576 43.2367 193.16 16.66 207ZM152.915 207L136.255 178.53C154.898 168.249 169.575 155.398 180.285 139.977C190.995 124.16 196.945 105.774 198.135 84.8166C193.375 87.1891 188.218 88.3754 182.665 88.3754C169.972 88.3754 159.658 84.6189 151.725 77.106C144.188 69.1977 140.42 58.9169 140.42 46.2636C140.42 32.4241 144.585 21.3525 152.915 13.0487C161.245 4.34958 171.757 0 184.45 0C200.317 0 213.208 6.32666 223.125 18.98C233.042 31.6332 238 49.2292 238 71.7679C238 101.424 230.463 127.917 215.39 151.246C200.317 174.576 179.492 193.16 152.915 207Z" fill="#FDB900" fill-opacity="0.15"/>
</svg>
