<svg width="48" height="48" viewBox="0 0 48 48" fill="none" xmlns="http://www.w3.org/2000/svg">
<g clip-path="url(#clip0)">
<path d="M6.83855 7.69523C7.16199 7.69523 7.42418 7.43313 7.42418 7.10961V5.36641C7.42418 5.25875 7.51176 5.17117 7.61941 5.17117H29.4924C29.6 5.17117 29.6876 5.25867 29.6876 5.36641V11.7448C29.6876 12.0682 29.9498 12.3304 30.2732 12.3304C30.5967 12.3304 30.8589 12.0683 30.8589 11.7448V5.36641C30.8589 4.61297 30.2459 4 29.4925 4H7.61934C6.8659 4 6.25293 4.61297 6.25293 5.36641V7.10961C6.25293 7.43313 6.51512 7.69523 6.83855 7.69523Z" fill="#FDB900"/>
<path d="M39.6006 19.0067H39.1905V16.2048C39.1905 15.0209 38.2273 14.0576 37.0434 14.0576H11.4287C10.2447 14.0576 9.28148 15.0209 9.28148 16.2048V18.2839H7.61844C7.51078 18.2839 7.4232 18.1964 7.4232 18.0887V9.83416C7.4232 9.51072 7.16102 9.24854 6.83758 9.24854C6.51414 9.24854 6.25195 9.51064 6.25195 9.83416V18.0887C6.25195 18.8421 6.86492 19.4551 7.61836 19.4551H9.28133V22.98C9.28133 24.1639 10.2445 25.1272 11.4285 25.1272H37.0431C38.2271 25.1272 39.1903 24.1639 39.1903 22.98V20.178H39.6004C40.1386 20.178 40.5764 20.6158 40.5764 21.154V24.3688C40.5764 25.045 40.0714 25.6267 39.4018 25.7216L25.8315 27.6459C24.6498 27.8135 23.7448 28.7972 23.6577 29.9724H21.9641C21.4259 29.9724 20.988 30.4102 20.988 30.9484V32.211C20.988 32.9338 21.1365 33.6354 21.4291 34.2963C21.6552 34.8069 21.7699 35.3489 21.7699 35.9073V43.024C21.7699 43.5622 22.2077 44 22.7459 44H25.7255C26.2637 44 26.7015 43.5622 26.7015 43.024V41.7104C26.7015 41.387 26.4393 41.1248 26.1159 41.1248C25.7924 41.1248 25.5302 41.3869 25.5302 41.7104V42.8288H22.9411V35.9072C22.9411 35.1844 22.7927 34.4828 22.4999 33.8219C22.2738 33.3113 22.1591 32.7693 22.1591 32.211V31.1435H26.3124V32.211C26.3124 32.7693 26.1978 33.3113 25.9716 33.8219C25.6789 34.4828 25.5305 35.1844 25.5305 35.9072V38.8531C25.5305 39.1766 25.7927 39.4388 26.1161 39.4388C26.4395 39.4388 26.7017 39.1767 26.7017 38.8531V35.9072C26.7017 35.3488 26.8164 34.8068 27.0425 34.2962C27.3352 33.6353 27.4836 32.9338 27.4836 32.211V30.9484C27.4836 30.4102 27.0458 29.9724 26.5076 29.9724H24.8359C24.9186 29.3782 25.389 28.8916 25.9962 28.8055L39.5665 26.8812C40.8101 26.7049 41.7478 25.6247 41.7478 24.3688V21.154C41.7478 19.97 40.7845 19.0067 39.6006 19.0067ZM16.6343 19.1863C16.5259 19.1295 16.408 19.1015 16.2907 19.1015C16.143 19.1015 15.9962 19.1459 15.8698 19.2335C15.615 19.4101 15.3158 19.5035 15.0046 19.5035C14.1651 19.5035 13.482 18.8205 13.482 17.981V15.2287H34.648V17.9792C34.648 18.8188 33.965 19.5018 33.1255 19.5018C32.368 19.5018 31.7198 18.9369 31.6177 18.1878C31.5866 17.9597 31.4477 17.7562 31.2465 17.6432C31.0454 17.5305 30.7996 17.5181 30.589 17.6104C30.3964 17.6947 30.1915 17.7375 29.9799 17.7375C29.4928 17.7375 29.0466 17.5124 28.7559 17.1199C28.6175 16.9329 28.3955 16.8213 28.162 16.8213C27.9286 16.8213 27.7066 16.9329 27.5682 17.1198C27.2775 17.5123 26.8313 17.7375 26.3441 17.7375H20.6631C20.3397 17.7375 20.0775 17.9996 20.0775 18.3231V20.113C20.0775 20.9525 19.3945 21.6356 18.5549 21.6356C17.7154 21.6356 17.0323 20.9525 17.0323 20.113V19.8438C17.0323 19.5668 16.8798 19.3149 16.6343 19.1863ZM38.0193 22.98C38.0193 23.5182 37.5815 23.956 37.0433 23.956H11.4287C10.8905 23.956 10.4527 23.5182 10.4527 22.98V16.2048C10.4527 15.6666 10.8905 15.2288 11.4287 15.2288H12.3109V17.981C12.3109 19.4664 13.5193 20.6748 15.0046 20.6748C15.3103 20.6748 15.6096 20.6238 15.8927 20.5249C16.0915 21.8155 17.2097 22.8068 18.555 22.8068C20.0404 22.8068 21.2487 21.5984 21.2487 20.1131V18.9088H26.3441C27.0194 18.9088 27.6695 18.6509 28.162 18.2016C28.6545 18.651 29.3046 18.9088 29.9799 18.9088C30.1818 18.9088 30.3805 18.8867 30.5742 18.843C30.9381 19.9147 31.9587 20.6731 33.1255 20.6731C34.6109 20.6731 35.8193 19.4647 35.8193 17.9794V15.2288H37.0434C37.5816 15.2288 38.0194 15.6667 38.0194 16.2049V22.98H38.0193Z" fill="#FDB900"/>
<path d="M14.58 26.0974C14.2384 26.0974 13.9167 26.2641 13.7195 26.5432C12.3145 28.5301 12.3145 29.2272 12.3145 29.4562C12.3145 30.7055 13.3308 31.7218 14.58 31.7218C15.8292 31.7218 16.8456 30.7055 16.8456 29.4562C16.8456 29.2272 16.8456 28.5301 15.4406 26.5433C15.2433 26.2641 14.9216 26.0974 14.58 26.0974ZM14.58 30.5506C13.9766 30.5506 13.4856 30.0597 13.4856 29.4562C13.4856 29.2101 13.7745 28.5159 14.58 27.3559C15.3854 28.5158 15.6744 29.2102 15.6744 29.4562C15.6744 30.0597 15.1834 30.5506 14.58 30.5506Z" fill="#FDB900"/>
</g>
<defs>
<clipPath id="clip0">
<rect width="40" height="40" fill="white" transform="translate(4 4)"/>
</clipPath>
</defs>
</svg>
