<svg width="64" height="64" viewBox="0 0 64 64" fill="none" xmlns="http://www.w3.org/2000/svg">
<g clip-path="url(#clip0)">
<path d="M63.8824 15.1763C63.6622 14.3572 63.1247 13.6589 62.3895 13.2355C61.6536 12.8101 60.7788 12.695 59.9581 12.9153C59.1384 13.1361 58.4401 13.6729 58.0168 14.4082L57.4835 15.3362C56.9768 15.0451 56.3296 15.2164 56.0332 15.7205L53.3243 20.338L52.3964 19.8047C52.1506 19.6625 51.8579 19.624 51.584 19.698C51.3096 19.7724 51.0763 19.9526 50.9352 20.1994C50.6461 20.7092 50.8222 21.3571 51.3299 21.6497L52.2578 22.183L43.1927 37.8923L40.953 43.8756L39.8865 45.8695C39.2621 46.9558 39.3288 48.3061 40.0573 49.3252L37.6577 52.2685L36.986 50.5838C36.6829 49.8329 35.9815 49.3184 35.1748 49.2554C34.3677 49.1919 33.5944 49.5908 33.1783 50.2849L32.7945 50.9353L32.4321 46.6694C32.3487 45.6602 31.5671 44.8489 30.5621 44.727C29.5565 44.6057 28.6046 45.2082 28.2833 46.1684L25.6598 54.039C25.4765 54.5957 25.7764 55.1956 26.3315 55.383C26.4357 55.4315 26.5476 55.4606 26.6622 55.4679C27.1205 55.4695 27.5287 55.1773 27.6756 54.743L30.2882 46.8725L30.6615 51.202C30.7386 52.1258 31.4025 52.8939 32.3055 53.1032C33.2085 53.3125 34.1427 52.9147 34.6181 52.1195L35.0129 51.4686L35.6742 53.1433C35.9549 53.8489 36.5897 54.3525 37.3411 54.4644C38.0926 54.5764 38.8466 54.2801 39.3215 53.687L41.8065 50.5411C42.0815 50.613 42.3647 50.6489 42.6491 50.6479C43.7921 50.6567 44.8534 50.0548 45.4324 49.069L46.4989 47.288L50.5623 42.3504L59.7232 26.4489L60.6512 26.9821C60.8986 27.1238 61.0787 27.3576 61.1522 27.6331C61.2261 27.9065 61.1876 28.1981 61.0459 28.4433L56.78 35.8343C56.6191 36.0769 56.5644 36.3748 56.629 36.6591C56.6936 36.9429 56.8711 37.1882 57.1211 37.3377C57.3669 37.4803 57.6595 37.5189 57.9334 37.4449C58.2079 37.3705 58.4412 37.1903 58.5823 36.9435L62.8482 29.5525C63.2737 28.8167 63.3888 27.9419 63.168 27.1212C62.9472 26.3015 62.4103 25.6032 61.675 25.1798L60.747 24.6466L63.4132 20.0286C63.7043 19.5219 63.533 18.8752 63.0294 18.5784L63.5627 17.6504C63.9996 16.9031 64.1152 16.0106 63.8824 15.1763ZM59.8618 15.4747C60.0029 15.2279 60.2372 15.0472 60.5127 14.9738C60.7866 14.9061 61.0761 14.9441 61.323 15.0805C61.5703 15.2216 61.7505 15.456 61.8244 15.7309C61.8921 16.0048 61.8541 16.2944 61.7177 16.5412L61.1845 17.4692L59.3285 16.4027L59.8618 15.4747ZM45.3257 45.2514L44.7925 44.9421L43.2141 44.0245L44.7284 39.9721L48.0877 41.9129L45.3257 45.2514ZM42.1262 48.3332C41.6758 48.0192 41.5373 47.4151 41.8065 46.936L42.3397 46.0086L44.1952 47.0751L43.6619 47.9921C43.5125 48.2514 43.2615 48.4358 42.9693 48.5009C42.6772 48.5654 42.3715 48.505 42.1262 48.3332ZM49.3037 40.1643L45.6137 38.0313L54.1455 23.2494L57.8355 25.3824L49.3037 40.1643ZM58.902 23.5374L55.212 21.4044L57.345 17.7144L61.035 19.8474L58.902 23.5374Z" fill="#000531"/>
<path d="M16.8286 47.7999L13.0537 51.5649L10.7926 49.3038C10.3766 48.8904 9.70479 48.8904 9.28872 49.3038C9.08667 49.5043 8.97314 49.7767 8.97314 50.061C8.97314 50.3453 9.08667 50.6182 9.28872 50.8181L11.5498 53.0792C11.9497 53.476 12.4903 53.6984 13.0537 53.6979C13.6203 53.701 14.1655 53.4786 14.568 53.0792L18.3325 49.3038C18.6949 48.8805 18.6704 48.2498 18.2768 47.8562C17.8826 47.462 17.2519 47.4375 16.8286 47.7999Z" fill="#FDB900"/>
<path d="M4.26587 50.6687C4.26587 55.6757 8.32455 59.7338 13.331 59.7338C18.3374 59.7338 22.3961 55.6757 22.3961 50.6687C22.3961 50.0797 21.9186 49.6022 21.3296 49.6022C20.7407 49.6022 20.2631 50.0797 20.2631 50.6687C20.2631 54.4972 17.1595 57.6008 13.331 57.6008C9.50248 57.6008 6.39884 54.4972 6.39884 50.6687C6.39884 46.8402 9.50248 43.7365 13.331 43.7365C14.8318 43.7324 16.2925 44.2193 17.4902 45.1233C17.9615 45.4769 18.6301 45.381 18.9832 44.9098C19.3367 44.4385 19.2414 43.7704 18.7702 43.4168C16.0232 41.3567 12.3478 41.0255 9.277 42.5607C6.20564 44.0964 4.26587 47.2354 4.26587 50.6687Z" fill="#FDB900"/>
<path d="M38.3933 8.54252C38.9822 8.54252 39.4597 8.06551 39.4597 7.47603C39.4597 6.88707 38.9822 6.40955 38.3933 6.40955H10.6646C10.0757 6.40955 9.59814 6.88707 9.59814 7.47603V11.742C9.59814 12.3315 10.0757 12.8085 10.6646 12.8085H38.3933C38.9822 12.8085 39.4597 12.3315 39.4597 11.742C39.4597 11.153 38.9822 10.6755 38.3933 10.6755H11.7311V8.54252H38.3933Z" fill="#FDB900"/>
<path d="M13.8641 14.9414C13.2751 14.9414 12.7976 15.419 12.7976 16.0079C12.7976 16.5974 13.2751 17.0744 13.8641 17.0744H35.1938C35.7827 17.0744 36.2603 16.5974 36.2603 16.0079C36.2603 15.419 35.7827 14.9414 35.1938 14.9414H13.8641Z" fill="#FDB900"/>
<path d="M41.5931 22.4068H18.1305C17.5415 22.4068 17.064 22.8844 17.064 23.4733C17.064 24.0628 17.5415 24.5398 18.1305 24.5398H41.5931C42.1821 24.5398 42.6596 24.0628 42.6596 23.4733C42.6596 22.8844 42.1821 22.4068 41.5931 22.4068Z" fill="#FDB900"/>
<path d="M30.9282 29.8722C30.9282 29.2833 30.4507 28.8058 29.8618 28.8058H8.53206C7.9431 28.8058 7.46558 29.2833 7.46558 29.8722C7.46558 30.4617 7.9431 30.9387 8.53206 30.9387H29.8618C30.4507 30.9387 30.9282 30.4617 30.9282 29.8722Z" fill="#FDB900"/>
<path d="M41.5927 28.8058H34.1273C33.5383 28.8058 33.0608 29.2833 33.0608 29.8722C33.0608 30.4617 33.5383 30.9387 34.1273 30.9387H41.5927C42.1817 30.9387 42.6592 30.4617 42.6592 29.8722C42.6592 29.2833 42.1817 28.8058 41.5927 28.8058Z" fill="#FDB900"/>
<path d="M19.1969 36.2711C19.7859 36.2711 20.2634 35.7941 20.2634 35.2047C20.2634 34.6157 19.7859 34.1382 19.1969 34.1382H8.53206C7.9431 34.1382 7.46558 34.6157 7.46558 35.2047C7.46558 35.7941 7.9431 36.2711 8.53206 36.2711H19.1969Z" fill="#FDB900"/>
<path d="M23.4627 36.2711H30.9281C31.5171 36.2711 31.9946 35.7941 31.9946 35.2047C31.9946 34.6157 31.5171 34.1382 30.9281 34.1382H23.4627C22.8738 34.1382 22.3962 34.6157 22.3962 35.2047C22.3962 35.7941 22.8738 36.2711 23.4627 36.2711Z" fill="#FDB900"/>
<path d="M47.9918 49.069C47.4029 49.069 46.9253 49.5465 46.9253 50.1355V60.8003C46.9253 61.3898 46.4478 61.8668 45.8588 61.8668H3.19945C2.61049 61.8668 2.13297 61.3898 2.13297 60.8003V3.21014C2.13297 2.62117 2.61049 2.14365 3.19945 2.14365H45.8588C46.4478 2.14365 46.9253 2.62117 46.9253 3.21014V23.239C46.9253 23.828 47.4029 24.3055 47.9918 24.3055C48.5808 24.3055 49.0583 23.828 49.0583 23.239V3.21014C49.0583 1.44325 47.6257 0.0106812 45.8588 0.0106812H3.19945C1.43257 0.0106812 0 1.44325 0 3.21014V60.8003C0 62.5677 1.43257 63.9998 3.19945 63.9998H45.8588C47.6257 63.9998 49.0583 62.5677 49.0583 60.8003V50.1355C49.0583 49.5465 48.5808 49.069 47.9918 49.069Z" fill="#FDB900"/>
</g>
<defs>
<clipPath id="clip0">
<rect width="64" height="64" fill="white"/>
</clipPath>
</defs>
</svg>
