<svg width="64" height="64" viewBox="0 0 64 64" fill="none" xmlns="http://www.w3.org/2000/svg">
<g clip-path="url(#clip0)">
<path d="M57.7701 35.686V25.6053C57.7701 25.0561 57.5294 24.5346 57.1115 24.1784C56.6936 23.8223 56.1406 23.6668 55.5984 23.7539L44.5998 25.5166V24.0693H45.4705C46.506 24.0693 47.3455 23.2298 47.3455 22.1943C47.3455 21.2125 46.5905 20.4083 45.6296 20.3273V16.5385C45.6296 13.4248 44.5553 10.5574 42.7583 8.28675L43.1669 6.94888C43.4694 5.9585 42.9116 4.9105 41.9214 4.608C41.0612 4.34513 40.1581 4.73188 39.7373 5.48688C38.7479 4.81975 37.6642 4.28238 36.5114 3.89813L36.6393 2.205C36.6785 1.68475 36.4993 1.1715 36.1445 0.788876C35.7896 0.406126 35.2915 0.188751 34.7696 0.188751H29.2305C28.7086 0.188751 28.2105 0.406126 27.8556 0.788876C27.5009 1.17163 27.3215 1.68475 27.3609 2.205L27.4888 3.89813C26.3358 4.28238 25.2523 4.81975 24.2628 5.48688C23.8419 4.73188 22.9389 4.345 22.0786 4.608C21.0882 4.9105 20.5306 5.9585 20.8331 6.94888L21.2418 8.28675C19.4447 10.5574 18.3704 13.4248 18.3704 16.5385V20.3273C17.4095 20.4083 16.6545 21.2124 16.6545 22.1943C16.6545 23.2298 17.494 24.0693 18.5295 24.0693H19.4002V25.5166L8.40162 23.7539C7.85962 23.667 7.30638 23.8221 6.8885 24.1784C6.47063 24.5346 6.22988 25.0561 6.22988 25.6053V35.686C2.72338 36.1215 0 39.1179 0 42.7404V43.0241C0 46.6466 2.72338 49.6429 6.22988 50.0785V58.1066C6.22988 59.0276 6.89875 59.8124 7.80813 59.958L31.7033 63.7875C31.8015 63.8032 31.9007 63.8111 32 63.8111C32.0993 63.8111 32.1984 63.8032 32.2967 63.7875L56.1919 59.9579C57.1012 59.8122 57.7701 59.0276 57.7701 58.1065V50.0784C61.2766 49.6429 64 46.6465 64 43.024V42.7402C64 39.1179 61.2766 36.1215 57.7701 35.686ZM60.25 43.024C60.25 44.5725 59.1974 45.8795 57.7701 46.2676V39.4966C59.1974 39.8849 60.25 41.1919 60.25 42.7404V43.024ZM3.75 43.024V42.7402C3.75 41.1917 4.80263 39.8848 6.22988 39.4966V46.2676C4.80263 45.8796 3.75 44.5725 3.75 43.024ZM22.1203 16.5385C22.1203 14.9271 22.5222 13.4086 23.2286 12.075C23.4155 12.1368 23.613 12.1694 23.8143 12.1694C23.9956 12.1694 24.1801 12.1429 24.3626 12.0871C25.353 11.7846 25.9106 10.7366 25.6081 9.74625L25.4654 9.27875C26.1594 8.68275 26.9391 8.185 27.7838 7.80563L27.8741 9.00238C27.948 9.98038 28.7631 10.7361 29.7439 10.7361H34.2559C35.2366 10.7361 36.0516 9.98038 36.1256 9.00238L36.216 7.80563C37.0607 8.185 37.8404 8.68288 38.5344 9.27875L38.3916 9.74625C38.0891 10.7366 38.6469 11.7846 39.6371 12.0871C39.8196 12.1429 40.0041 12.1694 40.1855 12.1694C40.3867 12.1694 40.5843 12.1366 40.7711 12.075C41.4775 13.4086 41.8795 14.9273 41.8795 16.5385V20.3193H22.1203V16.5385ZM31.2525 3.93888H32.7476L32.5174 6.98613H31.4827L31.2525 3.93888ZM40.8498 24.0693V26.1176L32 27.5359L23.1502 26.1176V24.0693H40.8498ZM54.0201 56.5081L33.875 59.7368V31.0333L54.0201 27.8048V56.5081ZM30.125 31.0333V59.7368L9.97987 56.5081V27.8048L30.125 31.0333Z" fill="#FDB900"/>
<path d="M38.6182 39.7071C38.7374 39.7071 38.8583 39.6956 38.9798 39.672L49.2685 37.6616C50.2848 37.463 50.9478 36.4781 50.7492 35.4618C50.5505 34.4454 49.5655 33.7829 48.5494 33.9811L38.2607 35.9915C37.2444 36.1901 36.5814 37.175 36.78 38.1914C36.9549 39.0863 37.7394 39.7071 38.6182 39.7071Z" fill="#000747"/>
<path d="M48.5494 41.0588L38.2607 43.0691C37.2444 43.2678 36.5814 44.2526 36.78 45.269C36.9549 46.1639 37.7394 46.7848 38.6182 46.7848C38.7374 46.7848 38.8584 46.7733 38.9798 46.7496L49.2685 44.7393C50.2848 44.5406 50.9478 43.5558 50.7492 42.5394C50.5505 41.523 49.5659 40.8606 48.5494 41.0588Z" fill="#000747"/>
<path d="M48.5494 48.1363L38.2607 50.1466C37.2444 50.3453 36.5814 51.3301 36.78 52.3465C36.9549 53.2414 37.7394 53.8623 38.6183 53.8623C38.7375 53.8623 38.8584 53.8508 38.9799 53.8271L49.2687 51.8168C50.2849 51.6181 50.9479 50.6333 50.7493 49.6169C50.5507 48.6006 49.5655 47.938 48.5494 48.1363Z" fill="#000747"/>
<path d="M25.749 35.9916L15.4602 33.9813C14.4443 33.7831 13.4591 34.4456 13.2605 35.4619C13.062 36.4783 13.7248 37.4631 14.7411 37.6618L25.0298 39.6721C25.1513 39.6958 25.2721 39.7073 25.3915 39.7073C26.2702 39.7073 27.0548 39.0863 27.2297 38.1915C27.4282 37.175 26.7653 36.1901 25.749 35.9916Z" fill="#000747"/>
<path d="M25.749 43.0691L15.4602 41.0588C14.444 40.8609 13.4591 41.5233 13.2605 42.5394C13.062 43.5557 13.7248 44.5406 14.7411 44.7392L25.0298 46.7496C25.1513 46.7732 25.2721 46.7847 25.3915 46.7847C26.2702 46.7847 27.0547 46.1637 27.2296 45.269C27.4282 44.2525 26.7653 43.2677 25.749 43.0691Z" fill="#000747"/>
<path d="M25.749 50.1466L15.4602 48.1363C14.4443 47.938 13.4591 48.6006 13.2605 49.6169C13.062 50.6333 13.7248 51.6181 14.7411 51.8168L25.0298 53.8271C25.1513 53.8508 25.2721 53.8623 25.3915 53.8623C26.2702 53.8623 27.0548 53.2413 27.2297 52.3465C27.4282 51.3301 26.7653 50.3453 25.749 50.1466Z" fill="#000747"/>
</g>
<defs>
<clipPath id="clip0">
<rect width="64" height="64" fill="white"/>
</clipPath>
</defs>
</svg>
