<svg width="64" height="64" viewBox="0 0 64 64" fill="none" xmlns="http://www.w3.org/2000/svg">
<g clip-path="url(#clip0)">
<path d="M18.8494 7.80937V3.75H45.1143V16.875H41.4873C40.0441 16.875 39.1404 18.4408 39.8636 19.6895L45.3667 29.1895C46.0846 30.4285 47.875 30.4369 48.6046 29.2054L54.2329 19.7054C54.9721 18.4574 54.0705 16.8751 52.6185 16.8751H48.8664V1.875C48.8664 0.8395 48.0264 0 46.9902 0H16.9732C15.9371 0 15.0971 0.8395 15.0971 1.875V7.79413C6.80225 8.69188 -0.00124983 15.8996 1.72218e-07 24.578C0.000625172 29.6601 2.26038 34.4225 6.1995 37.6439C7.07212 38.3575 7.593 39.3884 7.593 40.4015V54.4997C7.593 55.516 8.4025 56.3414 9.412 56.3719C9.42612 60.5114 12.7994 63.8747 16.9445 63.8747C21.0885 63.8747 24.4611 60.5129 24.4769 56.3747H24.4776C25.5138 56.3747 26.3538 55.5352 26.3538 54.4997C26.3531 41.0287 26.363 44.3521 26.3241 40.3963C26.3263 39.3015 26.7511 38.3078 27.4619 37.7368C31.4745 34.5129 33.7759 29.7159 33.7759 24.5758C33.7756 15.7978 27.1351 8.76038 18.8494 7.80937ZM47.0085 24.5391L44.7411 20.625H49.3275L47.0085 24.5391ZM22.6015 45.2499V52.6249H11.3451V45.2499H22.6015ZM16.9445 60.1247C14.8693 60.1247 13.1798 58.4451 13.1641 56.3747H20.7248C20.709 58.4451 19.0196 60.1247 16.9445 60.1247ZM25.1108 34.8143C22.0585 37.2666 22.6289 41.2335 22.5828 41.4999H19.4574L24.3985 25.0387C24.7591 23.837 23.8577 22.625 22.6016 22.625H11.3451C10.0898 22.625 9.18725 23.8363 9.54825 25.0387L14.4894 41.4999H11.3451C11.2593 41.0471 11.9349 37.4891 8.57575 34.7419C5.51088 32.2354 3.75275 28.5306 3.75225 24.5776C3.75113 17.5103 9.723 11.4978 16.7929 11.448C16.8248 11.4479 16.8564 11.4478 16.8883 11.4478C24.145 11.4478 30.0235 17.3161 30.0235 24.5759C30.0235 28.574 28.2329 32.3058 25.1108 34.8143ZM16.9732 36.7246L13.8665 26.3749H20.08L16.9732 36.7246Z" fill="#FDB900"/>
<path d="M62.1237 41.6345H58.9807C58.684 41.0099 58.334 40.399 57.9221 39.802L59.4936 37.0816C60.0117 36.1849 59.7043 35.0381 58.807 34.5204L52.3082 30.7704C51.4108 30.2524 50.2636 30.5597 49.7455 31.4566L48.1742 34.1764C47.4681 34.1184 46.7606 34.118 46.0555 34.175L44.4851 31.4567C43.9673 30.5606 42.8195 30.2526 41.9223 30.7705L35.4236 34.5205C34.5262 35.0382 34.2188 36.185 34.737 37.0817L36.3072 39.8001C35.9052 40.3819 35.5518 40.9945 35.249 41.6347H32.1068C31.0707 41.6347 30.2307 42.4742 30.2307 43.5097V51.0097C30.2307 52.0452 31.0707 52.8847 32.1068 52.8847H35.2498C35.5537 53.524 35.9062 54.1344 36.3085 54.7172L34.737 57.4376C34.2188 58.3344 34.5262 59.4811 35.4236 59.9989L41.9223 63.7489C42.8156 64.2644 43.9647 63.9634 44.4851 63.0626L46.0563 60.3429C46.7625 60.4009 47.47 60.4014 48.1751 60.3442L49.7455 63.0625C50.2636 63.9594 51.411 64.2664 52.3082 63.7487L58.807 59.9987C59.7038 59.4812 60.0116 58.3341 59.4936 57.4375L57.9232 54.7192C58.3252 54.1375 58.6786 53.5247 58.9816 52.8846H62.1237C63.1598 52.8846 63.9998 52.0451 63.9998 51.0096V43.5096C63.9998 42.474 63.1598 41.6345 62.1237 41.6345ZM60.2477 49.1345H57.7275C56.9321 49.1345 56.2232 49.6357 55.9583 50.3854C55.5723 51.4782 54.9962 52.4769 54.2462 53.3536C53.7295 53.9576 53.6498 54.8215 54.0473 55.5096L55.3061 57.6886L52.0567 59.5636L50.798 57.3846C50.4003 56.6965 49.6118 56.3334 48.8305 56.4786C47.696 56.6894 46.5423 56.6886 45.4023 56.4764C44.6202 56.3305 43.8316 56.6936 43.434 57.3821L42.1737 59.5636L38.9243 57.6886L40.1835 55.5089C40.5807 54.8214 40.5015 53.9585 39.9861 53.3545C39.2386 52.479 38.6548 51.4686 38.2693 50.3827C38.0038 49.6345 37.2955 49.1346 36.5012 49.1346H33.9828V45.3846H36.5031C37.2985 45.3846 38.0073 44.8834 38.2722 44.1337C38.6582 43.0409 39.2343 42.0422 39.9843 41.1654C40.501 40.5614 40.5806 39.6976 40.1831 39.0095L38.9245 36.8305L42.1738 34.9555L43.4326 37.1345C43.8301 37.8226 44.6185 38.1859 45.4002 38.0404C46.5346 37.8295 47.6878 37.8302 48.8282 38.0426C49.6102 38.188 50.399 37.8252 50.7966 37.1369L52.0568 34.9554L55.3062 36.8304L54.0471 39.0101C53.6498 39.6976 53.7291 40.5605 54.2445 41.1645C54.9918 42.0402 55.5757 43.0501 55.9612 44.1362C56.2267 44.8845 56.935 45.3845 57.7293 45.3845H60.2477V49.1345Z" fill="#000531"/>
<path d="M44.3012 42.3881C41.6136 43.9389 40.6896 47.3859 42.2412 50.072C43.7854 52.7454 47.2302 53.6884 49.9295 52.1309C52.617 50.5801 53.5411 47.1331 51.9895 44.4471C50.4342 41.7546 46.9958 40.8335 44.3012 42.3881ZM48.0533 48.8833C47.1573 49.4 46.0078 49.0923 45.4906 48.197C44.9733 47.3016 45.2813 46.1526 46.1772 45.6356C47.077 45.1165 48.2221 45.4256 48.74 46.322C49.2573 47.2174 48.9493 48.3663 48.0533 48.8833Z" fill="#000531"/>
</g>
<defs>
<clipPath id="clip0">
<rect width="64" height="64" fill="white"/>
</clipPath>
</defs>
</svg>
